<?xml version="1.0" standalone="no"?>
<!DOCTYPE svg PUBLIC "-//W3C//DTD SVG 20010904//EN"
 "http://www.w3.org/TR/2001/REC-SVG-20010904/DTD/svg10.dtd">
<svg version="1.0" xmlns="http://www.w3.org/2000/svg"
 width="60.000000pt" height="60.000000pt" viewBox="0 0 60.000000 60.000000"
 preserveAspectRatio="xMidYMid meet">

<g transform="translate(0.000000,60.000000) scale(0.100000,-0.100000)"
fill="#000000" stroke="none">
<path d="M148 395 c-49 -46 -88 -90 -88 -97 0 -28 30 -116 44 -127 11 -10 19
1 40 56 43 115 94 253 92 253 0 0 -40 -38 -88 -85z"/>
<path d="M271 422 c-17 -33 -72 -174 -68 -178 2 -2 37 30 78 72 l74 75 -30 25
c-36 29 -41 29 -54 6z"/>
<path d="M375 340 l-39 -40 75 -76 76 -76 22 45 c17 34 21 60 19 103 -3 56 -3
57 -36 60 -18 2 -42 8 -52 14 -25 13 -21 15 -65 -30z"/>
<path d="M221 186 l-73 -73 49 -24 c64 -31 142 -31 207 1 l48 23 -73 73 c-41
41 -76 74 -79 74 -3 0 -38 -33 -79 -74z"/>
</g>
</svg>
